<!DOCTYPE svg PUBLIC "-//W3C//DTD SVG 1.1//EN" "http://www.w3.org/Graphics/SVG/1.1/DTD/svg11.dtd">
<!-- Uploaded to: SVG Repo, www.svgrepo.com, Transformed by: SVG Repo Mixer Tools -->
<svg fill="#ffffff" height="800px" width="800px" version="1.1" id="Icons" xmlns="http://www.w3.org/2000/svg" xmlns:xlink="http://www.w3.org/1999/xlink" viewBox="0 0 32 32" xml:space="preserve" stroke="#ffffff">
<g id="SVGRepo_bgCarrier" stroke-width="0"/>
<g id="SVGRepo_tracerCarrier" stroke-linecap="round" stroke-linejoin="round"/>
<g id="SVGRepo_iconCarrier"> <g> <path d="M17,26H6c-0.6,0-1-0.4-1-1v-9.3c-1.8-0.6-3-2.3-3-4.2C2,9,4,7,6.5,7h10C19,7,21,9,21,11.5c0,1.9-1.2,3.6-3,4.2V25 C18,25.6,17.6,26,17,26z"/> </g> <path d="M25.5,7h-4.3c1.1,1.2,1.8,2.8,1.8,4.5c0,2.2-1.2,4.3-3,5.5v8c0,0.4-0.1,0.7-0.2,1H26c0.6,0,1-0.4,1-1v-9.3 c1.8-0.6,3-2.3,3-4.2C30,9,28,7,25.5,7z"/> </g>
</svg>